<svg width="34.962952" height="32.000000" viewBox="0 0 34.963 32" fill="none" xmlns="http://www.w3.org/2000/svg" xmlns:xlink="http://www.w3.org/1999/xlink">
	<desc>
			Created with Pixso.
	</desc>
	<defs/>
	<rect id="envelope" width="34.962963" height="32.000000" fill="#FFFFFF" fill-opacity="0"/>
	<path id="Vector" d="M0.72 5.94C5.52 9.66 13.94 16.21 16.42 18.25C16.75 18.52 17.11 18.66 17.48 18.66C17.85 18.66 18.2 18.52 18.53 18.25C21.01 16.21 29.43 9.66 34.23 5.94C34.53 5.71 34.57 5.3 34.33 5.02C33.77 4.37 32.94 4 32.04 4L2.91 4C2.02 4 1.18 4.37 0.62 5.02C0.38 5.3 0.43 5.71 0.72 5.94Z" fill="#CD06FF" fill-opacity="1.000000" fill-rule="nonzero"/>
	<path id="Vector" d="M34.54 7.96C34.28 7.85 33.97 7.89 33.76 8.05C28.44 12.18 21.65 17.48 19.51 19.24C18.31 20.23 16.64 20.23 15.44 19.24C13.17 17.36 5.54 11.42 1.19 8.05C0.98 7.89 0.67 7.85 0.42 7.96C0.16 8.07 0 8.3 0 8.56L0 25.33C0 26.8 1.3 28 2.91 28L32.04 28C33.65 28 34.96 26.8 34.96 25.33L34.96 8.56C34.96 8.3 34.79 8.07 34.54 7.96Z" fill="#CD06FF" fill-opacity="1.000000" fill-rule="nonzero"/>
</svg>
