<svg width="34.962952" height="32.000000" viewBox="0 0 34.963 32" fill="none" xmlns="http://www.w3.org/2000/svg" xmlns:xlink="http://www.w3.org/1999/xlink">
	<desc>
			Created with Pixso.
	</desc>
	<defs/>
	<rect id="location" width="34.962963" height="32.000000" fill="#FFFFFF" fill-opacity="0"/>
	<path id="Vector" d="M17.48 0C11.33 0 6.21 4.52 6.21 10.31C6.21 12.51 6.93 14.47 8.32 16.31L16.61 28.16C17.02 28.73 17.94 28.73 18.34 28.16L26.67 16.27C28.03 14.51 28.74 12.45 28.74 10.31C28.74 4.62 23.69 0 17.48 0ZM17.48 15C14.65 15 12.35 12.89 12.35 10.31C12.35 7.72 14.65 5.62 17.48 5.62C20.3 5.62 22.6 7.72 22.6 10.31C22.6 12.89 20.3 15 17.48 15Z" fill="#CD06FF" fill-opacity="1.000000" fill-rule="nonzero"/>
	<path id="Vector" d="M25.48 21.54L20.33 28.92C18.99 30.82 15.95 30.82 14.63 28.92L9.46 21.54C4.91 22.5 2.11 24.26 2.11 26.37C2.11 30.02 10.03 32 17.48 32C24.92 32 32.84 30.02 32.84 26.37C32.84 24.26 30.04 22.5 25.48 21.54Z" fill="#CD06FF" fill-opacity="1.000000" fill-rule="nonzero"/>
</svg>
