<svg width="34.962952" height="32.000000" viewBox="0 0 34.963 32" fill="none" xmlns="http://www.w3.org/2000/svg" xmlns:xlink="http://www.w3.org/1999/xlink">
	<desc>
			Created with Pixso.
	</desc>
	<defs/>
	<rect id="bx:bxs-phone-call" width="34.962963" height="32.000000" fill="#CD06FF" fill-opacity="0"/>
	<path id="Vector" d="M29.13 14.66L32.04 14.66C32.04 7.82 26.4 2.66 18.92 2.66L18.92 5.33C24.84 5.33 29.13 9.25 29.13 14.66Z" fill="#CD06FF" fill-opacity="1.000000" fill-rule="nonzero"/>
	<path id="Vector" d="M18.93 10.66C22 10.66 23.3 11.86 23.3 14.66L26.22 14.66C26.22 10.36 23.63 8 18.93 8L18.93 10.66ZM23.92 17.92C23.64 17.69 23.27 17.56 22.89 17.57C22.51 17.58 22.16 17.73 21.89 17.98L18.41 21.26C17.57 21.11 15.88 20.63 14.14 19.04C12.41 17.45 11.88 15.91 11.73 15.14L15.31 11.95C15.58 11.71 15.74 11.38 15.75 11.04C15.76 10.69 15.62 10.35 15.37 10.1L9.99 4.68C9.73 4.42 9.38 4.27 9 4.24C8.62 4.22 8.25 4.34 7.96 4.56L4.8 7.04C4.55 7.28 4.4 7.58 4.38 7.91C4.36 8.24 3.94 16.14 10.63 22.26C16.46 27.6 23.77 28 25.79 28C26.08 28 26.26 27.99 26.31 27.98C26.67 27.97 27 27.83 27.25 27.6L29.96 24.7C30.21 24.44 30.34 24.1 30.31 23.75C30.29 23.4 30.12 23.08 29.84 22.85L23.92 17.92Z" fill="#CD06FF" fill-opacity="1.000000" fill-rule="nonzero"/>
</svg>
