<svg width="50.000000" height="50.000000" viewBox="0 0 50 50" fill="none" xmlns="http://www.w3.org/2000/svg" xmlns:xlink="http://www.w3.org/1999/xlink">
	<desc>
			Created with Pixso.
	</desc>
	<defs>
		<clipPath id="clip2212_8">
			<rect id="foundation:social-pinterest" width="50.000000" height="50.000000" fill="white" fill-opacity="0"/>
		</clipPath>
	</defs>
	<rect id="foundation:social-pinterest" width="50.000000" height="50.000000" fill="#FFFFFF" fill-opacity="0"/>
	<g clip-path="url(#clip2212_8)">
		<path id="Vector" d="M25 0C11.19 0 -0.01 11.19 -0.01 25C-0.01 35.23 6.15 44.03 14.96 47.89C14.89 46.15 14.95 44.05 15.39 42.15C15.88 40.12 18.61 28.53 18.61 28.53C18.61 28.53 17.81 26.93 17.81 24.58C17.81 20.87 19.96 18.1 22.63 18.1C24.91 18.1 26.01 19.81 26.01 21.86C26.01 24.14 24.55 27.56 23.8 30.73C23.17 33.38 25.13 35.54 27.74 35.54C32.48 35.54 35.67 29.46 35.67 22.25C35.67 16.77 31.98 12.67 25.27 12.67C17.69 12.67 12.96 18.33 12.96 24.64C12.96 26.82 13.6 28.36 14.61 29.55C15.07 30.09 15.14 30.31 14.97 30.94C14.85 31.4 14.57 32.51 14.46 32.95C14.29 33.58 13.78 33.81 13.21 33.57C9.71 32.15 8.09 28.32 8.09 24.02C8.09 16.92 14.08 8.4 25.96 8.4C35.5 8.4 41.78 15.31 41.78 22.73C41.78 32.53 36.33 39.86 28.29 39.86C25.59 39.86 23.06 38.4 22.19 36.74C22.19 36.74 20.73 42.5 20.43 43.62C19.9 45.54 18.86 47.47 17.91 48.97C20.21 49.65 22.6 50 25 50C38.8 50 49.99 38.8 49.99 25C49.99 11.19 38.8 0 25 0Z" fill="#FFFFFF" fill-opacity="1.000000" fill-rule="nonzero"/>
	</g>
</svg>
