<svg width="20.238281" height="17.531250" viewBox="0 0 20.2383 17.5312" fill="none" xmlns="http://www.w3.org/2000/svg" xmlns:xlink="http://www.w3.org/1999/xlink">
	<desc>
			Created with Pixso.
	</desc>
	<defs/>
	<path id="“" d="M0 17.53L9.34 17.53L9.34 8.85L4.87 8.85Q4.94 7.83 5.36 6.99Q5.59 6.54 5.92 6.13Q6.87 4.98 9.34 3.82L7.32 0Q3.3 1.76 1.65 4.06Q0 6.35 0 10.33L0 17.53ZM10.89 17.53L20.23 17.53L20.23 8.85L15.76 8.85Q15.83 7.83 16.25 6.99Q16.48 6.54 16.82 6.13Q17.76 4.98 20.23 3.82L18.21 0Q14.2 1.76 12.54 4.06Q10.89 6.35 10.89 10.33L10.89 17.53Z" fill="#6C0287" fill-opacity="1.000000" fill-rule="evenodd"/>
</svg>
