<svg width="50.000000" height="50.000000" viewBox="0 0 50 50" fill="none" xmlns="http://www.w3.org/2000/svg" xmlns:xlink="http://www.w3.org/1999/xlink">
	<desc>
			Created with Pixso.
	</desc>
	<defs>
		<clipPath id="clip2212_5">
			<rect id="bi:telegram" width="50.000000" height="50.000000" fill="white" fill-opacity="0"/>
		</clipPath>
	</defs>
	<rect id="bi:telegram" width="50.000000" height="50.000000" fill="#FFFFFF" fill-opacity="0"/>
	<g clip-path="url(#clip2212_5)">
		<path id="Vector" d="M47.99 24C47.99 30.36 45.47 36.46 40.97 40.97C36.46 45.47 30.36 48 23.99 48C17.63 48 11.53 45.47 7.02 40.97C2.52 36.46 -0.01 30.36 -0.01 24C-0.01 17.63 2.52 11.53 7.02 7.02C11.53 2.52 17.63 0 23.99 0C30.36 0 36.46 2.52 40.97 7.02C45.47 11.53 47.99 17.63 47.99 24ZM24.86 17.71C22.52 18.68 17.85 20.7 10.86 23.74C9.72 24.19 9.13 24.64 9.07 25.07C8.98 25.8 9.9 26.09 11.14 26.48L11.67 26.64C12.89 27.04 14.54 27.51 15.4 27.53C16.18 27.54 17.04 27.23 18 26.57C24.54 22.15 27.91 19.92 28.12 19.88C28.27 19.84 28.48 19.8 28.62 19.92C28.76 20.05 28.75 20.28 28.73 20.35C28.64 20.73 25.05 24.07 23.19 25.8C22.61 26.34 22.2 26.72 22.12 26.81C21.93 27 21.75 27.18 21.56 27.36C20.42 28.46 19.56 29.28 21.6 30.63C22.58 31.28 23.37 31.81 24.15 32.34C25 32.92 25.85 33.5 26.96 34.23C27.24 34.41 27.51 34.6 27.77 34.79C28.76 35.5 29.66 36.13 30.76 36.03C31.4 35.97 32.06 35.37 32.4 33.57C33.2 29.32 34.76 20.11 35.12 16.32C35.14 16 35.13 15.69 35.08 15.37C35.05 15.12 34.93 14.89 34.74 14.72C34.46 14.53 34.14 14.44 33.81 14.44C32.91 14.46 31.52 14.94 24.86 17.71Z" fill="#FFFFFF" fill-opacity="1.000000" fill-rule="nonzero"/>
	</g>
</svg>
