<svg width="50.000000" height="50.000000" viewBox="0 0 50 50" fill="none" xmlns="http://www.w3.org/2000/svg" xmlns:xlink="http://www.w3.org/1999/xlink">
	<desc>
			Created with Pixso.
	</desc>
	<defs>
		<clipPath id="clip2212_3">
			<rect id="entypo-social:vk-with-circle" width="50.000000" height="50.000000" fill="white" fill-opacity="0"/>
		</clipPath>
	</defs>
	<rect id="entypo-social:vk-with-circle" width="50.000000" height="50.000000" fill="#FFFFFF" fill-opacity="0"/>
	<g clip-path="url(#clip2212_3)">
		<path id="Vector" d="M24.99 1C11.74 1 0.99 11.74 0.99 25C0.99 38.25 11.74 49 24.99 49C38.25 49 48.99 38.25 48.99 25C48.99 11.74 38.25 1 24.99 1ZM34.22 28.07C34.22 28.07 36.35 30.17 36.87 31.14C36.88 31.16 36.89 31.18 36.9 31.19C37.11 31.55 37.16 31.83 37.05 32.03C36.88 32.38 36.28 32.55 36.07 32.56L32.32 32.56C32.06 32.56 31.52 32.5 30.86 32.04C30.35 31.68 29.85 31.1 29.36 30.54C28.64 29.69 28.01 28.96 27.37 28.96C27.29 28.96 27.21 28.97 27.13 29C26.65 29.15 26.04 29.84 26.04 31.66C26.04 32.23 25.59 32.56 25.27 32.56L23.55 32.56C22.97 32.56 19.92 32.36 17.22 29.51C13.92 26.02 10.94 19.03 10.92 18.96C10.73 18.51 11.12 18.27 11.54 18.27L15.33 18.27C15.83 18.27 16 18.57 16.11 18.85C16.25 19.16 16.74 20.42 17.55 21.85C18.87 24.16 19.68 25.1 20.33 25.1C20.45 25.1 20.57 25.07 20.67 25.01C21.52 24.54 21.36 21.53 21.32 20.9C21.32 20.79 21.32 19.56 20.89 18.96C20.58 18.54 20.05 18.37 19.73 18.32C19.86 18.14 20.03 17.99 20.23 17.89C20.81 17.6 21.85 17.56 22.89 17.56L23.47 17.56C24.59 17.58 24.88 17.65 25.29 17.75C26.12 17.95 26.13 18.48 26.06 20.3C26.04 20.82 26.02 21.4 26.02 22.1C26.02 22.25 26.01 22.4 26.01 22.58C25.98 23.5 25.95 24.56 26.61 24.99C26.7 25.04 26.79 25.07 26.89 25.07C27.12 25.07 27.81 25.07 29.66 21.89C30.23 20.86 30.73 19.8 31.15 18.7C31.19 18.64 31.3 18.44 31.43 18.36C31.52 18.31 31.63 18.29 31.74 18.29L36.19 18.29C36.67 18.29 37.01 18.36 37.07 18.55C37.18 18.85 37.05 19.75 35.02 22.51L34.11 23.7C32.27 26.12 32.27 26.24 34.22 28.07Z" fill="#FFFFFF" fill-opacity="1.000000" fill-rule="nonzero"/>
	</g>
</svg>
